<?xml version="1.0" encoding="utf-8"?>
<!-- Generator: Adobe Illustrator 23.0.3, SVG Export Plug-In . SVG Version: 6.00 Build 0)  -->
<svg version="1.1" xmlns="http://www.w3.org/2000/svg" xmlns:xlink="http://www.w3.org/1999/xlink" x="0px" y="0px"
	 viewBox="0 0 750 500" style="enable-background:new 0 0 750 500;" xml:space="preserve">
<style type="text/css">
	.st0{display:none;}
	.st1{clip-path:url(#SVGID_2_);fill:url(#SVGID_3_);}
	.st2{opacity:0.2;clip-path:url(#SVGID_2_);fill:url(#SVGID_4_);}
	.st3{opacity:0.2;clip-path:url(#SVGID_2_);fill:url(#SVGID_5_);}
	.st4{opacity:0.2;clip-path:url(#SVGID_2_);fill:url(#SVGID_6_);}
	.st5{opacity:0.2;clip-path:url(#SVGID_2_);fill:url(#SVGID_7_);}
	.st6{clip-path:url(#SVGID_2_);fill:url(#SVGID_8_);}
	.st7{clip-path:url(#SVGID_2_);fill:#F8E6CB;}
</style>
<g id="BACKGROUND" class="st0">
</g>
<g id="OBJECTS">
	<g>
		<defs>
			<rect id="SVGID_1_" width="750" height="500"/>
		</defs>
		<clipPath id="SVGID_2_">
			<use xlink:href="#SVGID_1_"  style="overflow:visible;"/>
		</clipPath>
		<linearGradient id="SVGID_3_" gradientUnits="userSpaceOnUse" x1="375" y1="0" x2="375" y2="500">
			<stop  offset="0" style="stop-color:#F7FFFF"/>
			<stop  offset="1" style="stop-color:#E3DBDB"/>
		</linearGradient>
		<rect class="st1" width="750" height="500"/>
		<linearGradient id="SVGID_4_" gradientUnits="userSpaceOnUse" x1="221.6613" y1="466.9291" x2="732.2383" y2="466.9291">
			<stop  offset="0" style="stop-color:#D1D5DE"/>
			<stop  offset="1" style="stop-color:#DBDBDB"/>
		</linearGradient>
		<path class="st2" d="M682.48,545.29c-7.53-21.62-5.46-45.36-1.48-67.9c3.98-22.55,9.8-45,9.5-67.9
			c-0.5-37.39-18.42-74.23-47.68-97.51C613.56,288.7,573.5,279.53,537.08,288c-23.03,5.36-44.68,17.34-68.31,18.31
			c-24.26,1-47.31-9.72-71.19-14.1c-56.7-10.41-117.47,18.12-149.2,66.25c-31.73,48.13-34.74,112.69-11.52,165.46
			s70.82,93.23,125.34,111.98c54.51,18.74,115.18,16.57,169.87-1.66c26.82-8.94,52.35-21.59,79.54-29.3
			c27.2-7.71,57.23-10.12,83.08,1.32l37.54-19.83C709.35,585.81,690.02,566.91,682.48,545.29z"/>
		<linearGradient id="SVGID_5_" gradientUnits="userSpaceOnUse" x1="-227.9816" y1="595.418" x2="282.5954" y2="595.418">
			<stop  offset="0" style="stop-color:#D1D5DE"/>
			<stop  offset="1" style="stop-color:#DBDBDB"/>
		</linearGradient>
		<path class="st3" d="M232.84,673.78c-7.54-21.62-5.46-45.36-1.48-67.9c3.98-22.55,9.8-45,9.5-67.9
			c-0.5-37.39-18.42-74.23-47.68-97.51c-29.26-23.28-69.32-32.45-105.74-23.98c-23.03,5.36-44.68,17.34-68.31,18.31
			c-24.26,1-47.31-9.72-71.19-14.1c-56.7-10.41-117.47,18.12-149.2,66.25c-31.73,48.13-34.74,112.69-11.52,165.46
			c23.22,52.76,70.82,93.23,125.34,111.98c54.51,18.74,115.18,16.57,169.87-1.66c26.82-8.94,52.35-21.59,79.54-29.3
			c27.2-7.71,57.23-10.12,83.08,1.32l37.54-19.83C259.71,714.3,240.37,695.4,232.84,673.78z"/>
		<linearGradient id="SVGID_6_" gradientUnits="userSpaceOnUse" x1="391.9715" y1="-86.7707" x2="902.5485" y2="-86.7707">
			<stop  offset="0" style="stop-color:#D1D5DE"/>
			<stop  offset="1" style="stop-color:#DBDBDB"/>
		</linearGradient>
		<path class="st4" d="M852.79-8.4c-7.54-21.62-5.46-45.36-1.48-67.9c3.98-22.55,9.8-45,9.5-67.9
			c-0.5-37.39-18.42-74.23-47.68-97.51s-69.32-32.45-105.74-23.98c-23.03,5.36-44.68,17.34-68.31,18.31
			c-24.26,1-47.31-9.72-71.19-14.1c-56.7-10.41-117.47,18.12-149.2,66.25c-31.73,48.13-34.74,112.69-11.52,165.46
			C430.4,22.98,478,63.45,532.51,82.19c54.51,18.74,115.18,16.57,169.87-1.66c26.82-8.94,52.35-21.59,79.54-29.3
			c27.2-7.71,57.23-10.12,83.08,1.32l37.54-19.83C879.66,32.11,860.33,13.21,852.79-8.4z"/>
		<linearGradient id="SVGID_7_" gradientUnits="userSpaceOnUse" x1="0" y1="95.2595" x2="495.82" y2="95.2595">
			<stop  offset="0" style="stop-color:#D1D5DE"/>
			<stop  offset="1" style="stop-color:#DBDBDB"/>
		</linearGradient>
		<path class="st5" d="M495.82,0c-4.25,25.2-14.46,49.39-30.15,69.59c-30.96,39.84-82.29,62.95-132.64,59.7
			c-5.35-0.34-10.74-0.95-16.15-1.68c-28.28-3.79-57.1-10.7-82.47,1.11c-21.54,10.03-35.31,31.55-54.75,45.2
			c-25.43,17.86-59.66,20.78-89.24,11.25c-29.57-9.53-54.63-30.45-72.94-55.56C11.15,120.93,5.55,111.74,0,102.5V0H495.82z"/>
		<linearGradient id="SVGID_8_" gradientUnits="userSpaceOnUse" x1="161.33" y1="429.0495" x2="647.26" y2="429.0495">
			<stop  offset="0" style="stop-color:#D1D5DE"/>
			<stop  offset="1" style="stop-color:#DBDBDB"/>
		</linearGradient>
		<path class="st6" d="M647.26,500.01H161.33c1.46-13.7,4.91-27.24,9.92-40.06c11.72-29.92,35.16-58.44,66.97-62.98
			c13.72-1.96,27.2,0.7,40.25,5.54c18.7,6.93,39.65,1.28,52.48-13.99c9.06-10.77,20.71-19.39,33.8-24.57
			c24.24-9.61,52.9-7.26,75.25,6.15c6.63,3.98,12.71,8.85,18.58,14.03c16.7,14.72,31.71,31.94,52.74,38.34
			c21.87,6.64,45.77-0.03,68.18,4.45c32.85,6.57,56.99,36.54,66.53,68.65C646.47,497.04,646.88,498.52,647.26,500.01z"/>
		<path class="st7" d="M97.53,402.38c-3.23,0-5.85-2.62-5.85-5.85c0-3.23,2.62-5.85,5.85-5.85"/>
	</g>
</g>
</svg>
